<svg width="192" height="192" viewBox="0 0 192 192" fill="none" xmlns="http://www.w3.org/2000/svg">
<rect width="192" height="192" rx="96" fill="#2F80ED"/>
<path fill-rule="evenodd" clip-rule="evenodd" d="M155.417 96C155.417 128.815 128.815 155.417 96 155.417C63.1851 155.417 36.5833 128.815 36.5833 96C36.5833 63.1851 63.1851 36.5834 96 36.5834C128.815 36.5834 155.417 63.1851 155.417 96ZM162.133 96C162.133 132.524 132.524 162.133 96 162.133C59.4755 162.133 29.8666 132.524 29.8666 96C29.8666 59.4756 59.4755 29.8667 96 29.8667C132.524 29.8667 162.133 59.4756 162.133 96ZM83.2142 66.9014V75.7191L98.6453 75.7191V66.9014H83.2142ZM70.8693 88.064V79.2463H98.6453V88.064H70.8693ZM98.6453 91.5911H65.1377V100.409H98.6453V91.5911ZM59.4062 112.754V103.936H98.6453V112.754H59.4062ZM74.3964 125.099V116.281H98.6453V125.099H74.3964ZM103.495 66.9014C107.316 66.9014 111.1 67.654 114.631 69.1164C118.161 70.5787 121.369 72.7221 124.071 75.4242C126.773 78.1262 128.916 81.334 130.379 84.8645C131.841 88.3949 132.594 92.1787 132.594 96C132.594 99.8213 131.841 103.605 130.379 107.136C128.916 110.666 126.773 113.874 124.071 116.576C121.369 119.278 118.161 121.421 114.631 122.884C111.1 124.346 107.316 125.099 103.495 125.099V96V66.9014Z" fill="white"/>
</svg>
